<svg xmlns="http://www.w3.org/2000/svg" viewBox="0.00 0.00 2830.00 741.00"><path fill="#0079ff" d="  M 930.82 741.00  L 561.15 741.00  L 538.61 625.92  A 2.00 2.00 0.0 0 1 538.92 624.41  L 611.93 518.14  A 0.19 0.19 0.0 0 1 612.27 518.21  L 637.64 647.55  A 0.85 0.84 -5.4 0 0 638.47 648.23  L 817.30 648.23  A 0.45 0.45 0.0 0 0 817.74 647.70  L 736.93 235.61  Q 736.71 234.49 736.07 235.43  L 388.12 741.00  L 0.23 741.00  Q 0.27 740.85 0.26 740.71  Q 0.25 740.46 0.39 740.26  L 510.23 0.27  A 0.27 0.26 57.3 0 1 510.71 0.38  Q 540.45 151.47 569.91 302.61  Q 570.69 306.62 571.58 309.45  Q 571.73 309.93 572.02 309.51  L 785.03 0.35  A 0.33 0.33 0.0 0 1 785.62 0.47  L 930.82 741.00  Z  M 497.62 417.51  A 0.39 0.39 0.0 0 0 497.68 417.21  L 462.04 235.41  A 0.39 0.39 0.0 0 0 461.33 235.26  L 177.23 647.62  A 0.39 0.39 0.0 0 0 177.55 648.23  L 338.45 648.23  A 0.39 0.39 0.0 0 0 338.77 648.06  L 497.62 417.51  Z"></path><path fill="#ffffff" d="  M 1424.64 243.23  L 1526.05 243.38  A 0.31 0.31 0.0 0 1 1526.30 243.87  L 1388.70 440.28  A 0.31 0.31 0.0 0 0 1388.70 440.64  L 1526.29 637.64  A 0.31 0.31 0.0 0 1 1526.04 638.13  L 1424.54 638.13  A 0.31 0.31 0.0 0 1 1424.29 638.00  L 1337.71 514.35  A 0.31 0.31 0.0 0 0 1337.21 514.35  L 1250.62 638.00  A 0.31 0.31 0.0 0 1 1250.37 638.13  L 1148.31 638.13  A 0.31 0.31 0.0 0 1 1148.06 637.64  L 1285.64 440.65  A 0.31 0.31 0.0 0 0 1285.64 440.29  L 1148.04 243.87  A 0.31 0.31 0.0 0 1 1148.29 243.38  L 1250.27 243.23  A 0.31 0.31 0.0 0 1 1250.52 243.36  L 1337.21 367.16  A 0.31 0.31 0.0 0 0 1337.71 367.16  L 1424.39 243.36  A 0.31 0.31 0.0 0 1 1424.64 243.23  Z"></path><path fill="#ffffff" d="  M 2830.00 244.02  L 2830.00 638.23  L 2739.06 638.16  Q 2738.37 638.15 2738.37 637.47  L 2738.38 623.00  A 0.57 0.57 0.0 0 0 2737.60 622.47  Q 2704.76 635.16 2670.34 637.58  Q 2661.57 638.19 2650.69 638.18  Q 2557.51 638.04 2557.49 638.04  Q 2545.50 638.15 2533.38 633.33  C 2509.81 623.97 2491.93 603.26 2487.06 577.92  Q 2485.67 570.69 2485.71 559.22  Q 2485.97 487.10 2485.75 409.40  Q 2485.73 401.84 2486.76 395.65  C 2491.79 365.19 2516.60 340.23 2546.81 334.89  Q 2553.39 333.72 2564.83 333.77  Q 2606.59 333.95 2649.28 333.79  C 2679.84 333.68 2709.20 338.55 2737.80 349.63  A 0.41 0.41 0.0 0 0 2738.35 349.25  L 2738.35 244.55  Q 2738.35 244.02 2738.88 244.02  L 2830.00 244.02  Z  M 2659.48 576.59  C 2686.23 576.08 2713.03 570.50 2737.94 560.83  A 0.63 0.61 79.8 0 0 2738.33 560.25  L 2738.34 411.96  A 0.93 0.92 10.7 0 0 2737.75 411.10  Q 2705.54 398.70 2671.54 395.98  C 2657.16 394.83 2642.55 395.55 2627.91 395.29  Q 2617.73 395.12 2611.36 396.87  C 2591.93 402.21 2577.65 419.93 2577.64 440.58  Q 2577.61 483.81 2577.64 530.94  C 2577.66 555.50 2596.96 575.97 2621.80 576.63  Q 2636.66 577.03 2659.48 576.59  Z"></path><path fill="#ffffff" d="  M 1575.02 395.38  L 1537.80 395.38  Q 1537.34 395.38 1537.34 394.92  Q 1537.37 367.92 1537.30 341.51  Q 1537.29 338.04 1537.58 334.27  Q 1537.62 333.81 1538.08 333.81  L 1575.08 333.83  Q 1575.75 333.83 1575.75 333.17  L 1575.75 245.25  A 0.75 0.75 0.0 0 1 1576.50 244.50  L 1667.20 244.51  Q 1668.14 244.51 1668.14 245.45  L 1668.09 332.73  Q 1668.09 333.87 1669.23 333.87  L 1743.91 333.83  Q 1744.75 333.83 1744.75 334.66  L 1744.73 394.81  Q 1744.73 395.36 1744.19 395.36  L 1668.73 395.41  A 0.65 0.65 0.0 0 0 1668.08 396.06  Q 1668.25 463.83 1668.00 534.06  Q 1667.95 547.32 1669.43 551.99  C 1673.01 563.31 1682.88 573.03 1694.81 575.81  Q 1699.46 576.89 1707.14 576.83  Q 1726.34 576.67 1744.16 576.88  Q 1744.74 576.89 1744.74 577.48  L 1744.74 637.53  Q 1744.73 638.13 1744.13 638.13  Q 1706.23 638.17 1668.85 638.08  Q 1657.67 638.05 1645.90 634.56  C 1611.22 624.28 1583.88 595.77 1577.04 559.82  Q 1575.68 552.67 1575.69 542.54  Q 1575.79 469.04 1575.74 396.10  Q 1575.74 395.38 1575.02 395.38  Z"></path><path fill="#ffffff" d="  M 1863.93 521.82  Q 1864.08 530.53 1863.90 539.14  Q 1863.74 546.76 1865.48 552.30  C 1868.93 563.29 1879.12 573.38 1890.85 575.81  Q 1895.70 576.81 1901.96 576.81  Q 1988.17 576.76 2076.77 576.75  A 0.75 0.74 -90.0 0 1 2077.51 577.50  L 2077.51 637.69  A 0.43 0.42 -90.0 0 1 2077.09 638.12  Q 1975.26 638.15 1865.83 638.10  Q 1848.27 638.09 1830.53 630.57  C 1799.50 617.41 1777.22 588.46 1772.91 555.11  Q 1772.05 548.48 1772.11 536.83  Q 1772.37 486.90 1772.09 435.69  Q 1772.02 423.22 1773.06 416.19  Q 1778.36 380.48 1805.60 356.95  Q 1826.76 338.67 1854.53 334.77  Q 1861.71 333.76 1872.88 333.78  Q 1945.89 333.91 2020.04 333.79  Q 2030.58 333.78 2037.22 335.10  C 2060.12 339.66 2079.01 358.80 2083.40 382.06  Q 2084.56 388.22 2084.55 401.49  Q 2084.54 431.44 2084.45 461.13  Q 2084.40 480.09 2074.23 494.75  C 2065.05 507.97 2051.35 517.71 2035.70 520.43  Q 2029.60 521.48 2016.10 521.45  Q 1940.66 521.29 1864.35 521.40  Q 1863.93 521.40 1863.93 521.82  Z  M 1897.22 395.35  C 1882.72 395.30 1869.40 406.98 1865.33 420.11  Q 1863.79 425.11 1863.90 433.34  Q 1864.10 447.10 1863.89 459.32  A 0.53 0.53 0.0 0 0 1864.42 459.86  Q 1916.11 459.89 1967.85 459.86  C 1978.02 459.86 1986.51 453.58 1990.41 444.60  Q 1992.34 440.15 1992.12 431.44  C 1991.96 425.26 1992.85 417.87 1990.93 412.08  C 1988.67 405.25 1982.75 399.16 1976.14 396.69  Q 1972.30 395.25 1964.56 395.30  Q 1930.00 395.48 1897.22 395.35  Z"></path><path fill="#ffffff" d="  M 2128.84 637.21  Q 2128.97 535.31 2128.77 433.10  Q 2128.75 420.68 2129.41 414.26  Q 2133.12 378.06 2161.76 354.13  Q 2180.38 338.57 2204.87 334.85  Q 2211.97 333.77 2222.39 333.79  Q 2290.23 333.90 2351.77 333.85  C 2395.36 333.81 2433.53 365.84 2440.24 409.50  Q 2441.31 416.44 2441.29 428.33  Q 2441.15 530.46 2441.26 637.60  Q 2441.26 638.14 2440.72 638.14  L 2349.49 638.12  Q 2348.89 638.12 2348.89 637.52  Q 2348.74 544.11 2348.95 449.65  Q 2348.98 435.97 2347.57 430.18  C 2343.70 414.24 2330.73 400.80 2314.47 396.67  Q 2308.78 395.22 2298.59 395.29  Q 2281.68 395.41 2265.06 395.44  C 2244.66 395.48 2226.86 410.77 2222.11 430.02  Q 2220.66 435.90 2220.67 446.10  Q 2220.79 543.11 2220.70 637.65  A 0.49 0.48 -89.4 0 1 2220.22 638.13  L 2129.75 638.12  Q 2128.84 638.12 2128.84 637.21  Z"></path></svg>