<svg xmlns="http://www.w3.org/2000/svg" width="64" height="64" viewBox="0 0 64 64" fill="none"><path d="M63.9731 57.9347H38.5602L37.0107 50.0227C37.0072 50.0048 37.0073 49.9865 37.011 49.9686C37.0146 49.9508 37.0218 49.9339 37.032 49.9189L42.0511 42.6126C42.0526 42.6105 42.0546 42.609 42.0569 42.608C42.0593 42.6071 42.0619 42.6069 42.0643 42.6074C42.0668 42.6079 42.0691 42.6091 42.0709 42.6109C42.0727 42.6127 42.0739 42.6149 42.0745 42.6174L43.8185 51.5098C43.8211 51.5229 43.8281 51.5348 43.8385 51.5433C43.8489 51.5518 43.862 51.5565 43.8756 51.5565H56.1692C56.1737 51.5565 56.1781 51.5555 56.1822 51.5536C56.1863 51.5516 56.1899 51.5488 56.1928 51.5454C56.1957 51.5419 56.1977 51.5378 56.1989 51.5335C56.2 51.5291 56.2002 51.5246 56.1994 51.5201L50.6442 23.1881C50.6341 23.1367 50.6144 23.1326 50.585 23.1757L26.6653 57.9347H0C0.00183319 57.9278 0.00252063 57.9212 0.00206234 57.9147C0.00160404 57.9033 0.00458297 57.893 0.0109991 57.8838L35.0598 7.00797C35.0617 7.00494 35.0645 7.0026 35.0678 7.00126C35.0712 6.99992 35.0748 6.99964 35.0784 7.00046C35.0819 7.00127 35.0852 7.00314 35.0878 7.00583C35.0903 7.00852 35.0921 7.0119 35.0927 7.01553C36.4557 13.9407 37.8123 20.867 39.1624 27.7945C39.1982 27.9783 39.2364 28.135 39.2772 28.2647C39.2841 28.2867 39.2942 28.2881 39.3075 28.2689L53.9508 7.01347C53.9533 7.00992 53.9569 7.00718 53.9609 7.00558C53.965 7.00398 53.9694 7.0036 53.9737 7.00447C53.978 7.00534 53.982 7.00743 53.9851 7.01049C53.9882 7.01355 53.9904 7.01745 53.9913 7.02172L63.9731 57.9347ZM34.1929 35.6941C34.1949 35.6911 34.1963 35.6877 34.1971 35.6842C34.1978 35.6806 34.1977 35.677 34.197 35.6734L31.747 23.1743C31.7461 23.169 31.7436 23.1641 31.7399 23.1602C31.7361 23.1563 31.7313 23.1537 31.7261 23.1526C31.7208 23.1514 31.7153 23.1519 31.7103 23.154C31.7054 23.156 31.7011 23.1595 31.6981 23.164L12.1678 51.5146C12.1651 51.5186 12.1635 51.5233 12.1632 51.5282C12.1629 51.533 12.1639 51.5379 12.1662 51.5422C12.1685 51.5465 12.1718 51.5501 12.176 51.5526C12.1802 51.5552 12.1849 51.5565 12.1898 51.5565H23.2508C23.2551 51.5565 23.2594 51.5555 23.2632 51.5534C23.2671 51.5514 23.2704 51.5484 23.2728 51.5449L34.1929 35.6941Z" fill="#0079FF"></path></svg>